<?xml version="1.0" encoding="UTF-8" standalone="no"?>
<!-- Created with Inkscape (http://www.inkscape.org/) -->

<svg
   width="255.99998"
   height="255.99998"
   viewBox="0 0 67.733328 67.733329"
   version="1.1"
   id="svg1"
   xmlns="http://www.w3.org/2000/svg"
   xmlns:svg="http://www.w3.org/2000/svg">
  <defs
     id="defs1" />
  <g
     id="layer1">
    <path
       id="path1"
       style="fill:none;stroke:#000000;stroke-width:3.00322;stroke-opacity:1"
       d="m 62.746556,33.368504 c -2.1e-4,0.01179 0.0016,0.0045 -0.0644,0.05795 -4.938031,3.999133 -13.896608,14.727714 -28.617054,14.727714 -14.765416,0 -25.2195206,-7.646055 -28.3413874,-14.454649 -0.1989229,-0.433838 -0.1964068,-0.416541 -0.1943385,-0.428163 0.00741,-0.04162 -0.029986,-0.03031 0.4013722,-0.693117 C 10.067933,26.22123 19.828063,18.388545 34.065102,18.388545 c 14.807951,0 28.414172,14.380137 28.61778,14.562594 0.110544,0.09906 0.08121,0.277056 0.08121,0.277056 z" />
    <ellipse
       style="fill:none;stroke:#000000;stroke-width:2.64583;stroke-opacity:1"
       id="path2"
       cx="33.68261"
       cy="33.585171"
       rx="12.815574"
       ry="12.909118" />
    <path
       id="path3"
       style="fill:#000000;fill-opacity:1;stroke:#000000;stroke-width:2.73329;stroke-opacity:1"
       d="m 34.732247,27.333732 c -0.28421,-7e-5 -0.568081,0.01961 -0.849561,0.05891 0.176672,0.613636 0.0093,0.877432 0.273886,1.814876 -0.08956,0.170069 0.07039,-2.094864 -0.265312,0.497516 -0.219512,1.695151 -1.250221,2.645096 -3.145293,3.1519 -0.294364,0.07872 -0.161964,0.04997 -0.243953,0.07335 -0.16969,-0.04443 1.59672,0.563399 -0.456537,-0.125877 -1.657372,-0.556377 -1.130337,-0.439048 -1.78467,-0.824453 -0.159741,0.553121 -0.240807,1.125979 -0.240812,1.701705 -6.6e-5,3.387452 2.746023,6.133541 6.133476,6.133476 3.387453,6.4e-5 6.133541,-2.746025 6.133475,-6.133476 -2.2e-4,-3.387249 -2.167448,-6.347997 -5.554699,-6.347933 z" />
  </g>
</svg>
