<?xml version="1.0" encoding="UTF-8" standalone="no"?>
<!-- Created with Inkscape (http://www.inkscape.org/) -->

<svg
   width="255.99998"
   height="255.99998"
   viewBox="0 0 67.733328 67.733329"
   version="1.1"
   id="svg1"
   xmlns="http://www.w3.org/2000/svg"
   xmlns:svg="http://www.w3.org/2000/svg">
  <defs
     id="defs1" />
  <g
     id="layer1">
    <path
       id="path1"
       style="fill:#000000;stroke-width:0.233788"
       d="M 34.227885,9.9999064 A 24.228001,24.228001 0 0 0 9.9999064,34.227885 24.228001,24.228001 0 0 0 34.227885,58.455863 24.228001,24.228001 0 0 0 58.455863,34.227885 24.228001,24.228001 0 0 0 34.227885,9.9999064 Z m 0.03359,9.1927206 A 15,15 0 0 1 49.261593,34.192228 15,15 0 0 1 34.261475,49.192346 15,15 0 0 1 19.261357,34.192228 15,15 0 0 1 34.261475,19.192627 Z" />
    <path
       id="rect2"
       style="fill:#000000;fill-opacity:1;stroke-width:0.303714"
       d="m 28.68084,3.4143684 h 11.584415 c 1.223117,0 1.326006,0.9713839 1.482823,2.1844062 l 0.724969,5.6078014 c 0.156818,1.213022 -0.984675,2.207792 -2.207792,2.207792 H 28.68084 c -1.223117,0 -2.392061,-0.998635 -2.207793,-2.207792 L 27.338332,5.5286164 C 27.5226,4.3194595 27.457723,3.4143684 28.68084,3.4143684 Z" />
    <path
       id="rect2-6"
       style="fill:#000000;fill-opacity:1;stroke-width:0.303714"
       d="m 40.266745,65.836445 -11.583977,0.100736 c -1.223071,0.01064 -1.334403,-0.959817 -1.501763,-2.171429 l -0.773706,-5.601286 c -0.16736,-1.211613 0.96544,-2.216271 2.188511,-2.226907 l 11.583977,-0.100735 c 1.223071,-0.01064 2.400654,0.977795 2.226908,2.188509 l -0.815878,5.68527 c -0.173747,1.210714 -0.101002,2.115206 -1.324076,2.125839 z" />
    <path
       id="rect2-8"
       style="fill:#000000;fill-opacity:1;stroke-width:0.303714"
       d="m 51.674165,7.9864439 8.268284,8.1138251 c 0.87299,0.856682 0.26606,1.622064 -0.471624,2.597685 l -3.410313,4.510298 c -0.737683,0.975622 -2.24916,0.886119 -3.12215,0.02944 l -8.268284,-8.113825 c -0.87299,-0.856681 -1.007861,-2.388189 -0.02944,-3.122151 l 4.594483,-3.4465455 c 0.978424,-0.7339634 1.566052,-1.4254054 2.439042,-0.5687236 z" />
    <path
       id="rect2-8-2"
       style="fill:#000000;fill-opacity:1;stroke-width:0.303714"
       d="M 7.6947469,15.421351 16.022566,7.3686434 c 0.879276,-0.8502288 1.628482,-0.2234401 2.584426,0.5395698 l 4.419334,3.5273948 c 0.955945,0.763009 0.826844,2.271619 -0.05243,3.121848 l -8.32782,8.052708 c -0.879275,0.850228 -2.413792,0.944899 -3.121849,-0.05243 L 8.1993289,17.874468 C 7.4912709,16.877136 6.8154734,16.271582 7.6947499,15.421353 Z" />
    <path
       id="rect2-8-2-9"
       style="fill:#000000;fill-opacity:1;stroke-width:0.303714"
       d="m 61.47909,53.00336 -8.193998,8.188838 c -0.865147,0.864602 -1.624579,0.250243 -2.592966,-0.496911 l -4.476858,-3.454096 c -0.968387,-0.747154 -0.864162,-2.257686 9.82e-4,-3.122288 l 8.193999,-8.188839 c 0.865147,-0.8646 2.397895,-0.984543 3.12229,9.82e-4 l 3.401616,4.627844 c 0.724396,0.985529 1.410079,1.579866 0.544933,2.444468 z" />
    <path
       id="rect2-8-2-1"
       style="fill:#000000;fill-opacity:1;stroke-width:0.303714"
       d="M 15.333149,60.921712 7.1962561,52.67613 C 6.3371385,51.805535 6.956284,51.05 7.7095433,50.086355 l 3.4823167,-4.45494 c 0.753258,-0.963647 2.263102,-0.849879 3.12222,0.02071 l 8.136894,8.245583 c 0.859116,0.870593 0.969371,2.404069 -0.02071,3.122221 l -4.649247,3.372303 c -0.990088,0.718154 -1.588745,1.400067 -2.447863,0.529474 z" />
    <path
       id="rect2-8-1"
       style="fill:#000000;fill-opacity:1;stroke-width:0.303714"
       d="m 65.006418,27.822339 0.01864,11.584401 c 0.002,1.223116 -0.96925,1.327568 -2.182018,1.486337 l -5.606628,0.733991 c -1.212768,0.158771 -2.209373,-0.98112 -2.211343,-2.204234 l -0.01864,-11.5844 c -0.002,-1.223115 0.994786,-2.393665 2.204235,-2.211344 l 5.679345,0.856147 c 1.209452,0.182322 2.114438,0.115988 2.116406,1.339103 z" />
    <path
       id="rect2-8-1-2"
       style="fill:#000000;fill-opacity:1;stroke-width:0.303714"
       d="M 3.5163752,39.359795 3.2912936,27.777566 C 3.267497,26.554679 4.2367308,26.432936 5.4464771,26.252579 L 11.039135,25.41879 c 1.209746,-0.180359 2.226506,0.941591 2.250273,2.164475 l 0.225082,11.582228 c 0.0238,1.222886 -0.951971,2.411014 -2.164477,2.250274 L 5.6563123,40.660968 C 4.4438032,40.500228 3.5401429,40.582679 3.5163782,39.359794 Z" />
  </g>
</svg>
