<?xml version="1.0" encoding="UTF-8" standalone="no"?>
<!-- Created with Inkscape (http://www.inkscape.org/) -->

<svg
   width="255.99998"
   height="255.99998"
   viewBox="0 0 67.733328 67.733329"
   version="1.1"
   id="svg1"
   xmlns="http://www.w3.org/2000/svg"
   xmlns:svg="http://www.w3.org/2000/svg">
  <defs
     id="defs1" />
  <g
     id="layer1">
    <path
       id="rect1"
       style="fill:#000000;fill-opacity:1;stroke-width:0.297953"
       d="m 12.502596,15.847095 c -0.919054,0.02337 -1.511273,0.228121 -1.388546,1.140498 l 5.372282,39.939681 c 0.255232,1.897437 3.864467,4.059184 5.739701,4.059184 h 20.898466 c 1.875235,0 6.303421,-1.871072 6.622335,-3.758427 l 6.697265,-39.63324 c 0.318915,-1.887357 -1.731278,-1.550127 -3.606498,-1.557527 L 14.425993,15.886885 c -0.703208,-0.0028 -1.371965,-0.05382 -1.923397,-0.03979 z m 10.528556,6.831107 c 0.859152,0.03536 1.564466,0.726889 1.617472,1.623157 l 1.624191,27.460856 c 0.05654,0.956018 -0.651589,1.772107 -1.5875,1.829862 -0.935911,0.05776 -1.734565,-0.665588 -1.791105,-1.621606 L 21.270019,24.510132 c -0.05654,-0.956019 0.651589,-1.772108 1.5875,-1.829863 0.0585,-0.0036 0.116356,-0.0044 0.173633,-0.0021 z m 20.359997,0.169499 c 0.05731,-0.0011 0.115225,8.33e-4 0.173633,0.0057 0.934533,0.07762 1.625763,0.908324 1.549776,1.862935 l -2.182295,27.420032 c -0.07599,0.954611 -0.889645,1.660985 -1.824178,1.583366 -0.934533,-0.07762 -1.625764,-0.908841 -1.549777,-1.863452 L 41.741121,24.43625 c 0.07124,-0.894948 0.790342,-1.571428 1.650028,-1.588533 z m -10.100158,0.0801 c 0.937616,0.0015 1.691325,0.773917 1.689819,1.731677 L 34.9374,52.169944 c -0.0015,0.95776 -0.757371,1.72753 -1.694987,1.725992 -0.937616,-0.0015 -1.691325,-0.773917 -1.689819,-1.731677 l 0.04341,-27.510465 c 0.0015,-0.95776 0.757371,-1.727531 1.694987,-1.725993 z" />
    <path
       id="rect3"
       style="fill:#000000;fill-opacity:1;stroke-width:0.270079"
       d="m 12.527188,8.0697913 h 42.945109 c 1.149314,0 2.074574,0.9252599 2.074574,2.0745737 v 2.164773 c 0,1.149314 0.133053,2.345926 -1.01624,2.339158 L 11.601146,14.383712 c -1.149293,-0.0068 -1.148532,-0.92526 -1.148532,-2.074574 v -2.164773 c 0,-1.1493138 0.92526,-2.0745737 2.074574,-2.0745737 z" />
    <path
       id="rect4"
       style="fill:#000000;fill-opacity:1;stroke-width:0.229"
       d="m 22.754165,3.3072917 h 22.357291 c 0.806186,0 3.175,-0.1447271 3.042708,2.1166666 -0.04708,0.8048094 0.798084,3.8181787 0,3.7041666 l -2.778123,-0.396875 -1.460505,-2.223388 -18.199652,-0.071165 -2.692116,2.5900412 -2.38627,0.1013863 c -0.805458,0.034222 -0.69946,-3.0739797 10e-7,-4.6302082 0,0 1.045898,-1.190625 2.116666,-1.1906245 z" />
  </g>
</svg>
